<?xml version="1.0" encoding="iso-8859-1"?>
<!-- Generator: Adobe Illustrator 21.0.0, SVG Export Plug-In . SVG Version: 6.00 Build 0)  -->
<svg version="1.1" id="Capa_1" xmlns="http://www.w3.org/2000/svg" xmlns:xlink="http://www.w3.org/1999/xlink" x="0px" y="0px"
	 viewBox="0 0 512 512" style="enable-background:new 0 0 512 512;" xml:space="preserve">
<path style="fill:#8AC2FF;" d="M81.275,472.398c12.221-16.433,22.501-36.807,30.635-60.694
	c-54.717-43.711-86.98-110.196-86.98-180.635C24.93,103.657,128.588,0,256,0c127.413,0,231.07,103.657,231.07,231.069
	c0,127.413-103.657,231.07-231.07,231.07c-16.548,0-33.023-1.762-49.105-5.245c-36.749,28.425-76.118,45.52-97.135,53.426
	C86.688,519.004,66.576,492.158,81.275,472.398z"/>
<g>
	<path style="fill:#54A0FF;" d="M101.828,472.398c10.941-14.712,20.326-32.583,28.009-53.305c1.596-4.304,0.342-9.179-3.15-12.159
		c-51.204-43.695-81.203-107.942-81.203-175.865c0-123.967,98.132-225.432,220.792-230.829C262.868,0.09,259.444,0,256,0
		C128.588,0,24.93,103.657,24.93,231.069c0,70.439,32.262,136.924,86.979,180.635c-8.134,23.887-18.413,44.261-30.635,60.694
		c-12.353,16.607-0.117,39.537,19.69,39.535c2.929,0,5.905-0.525,8.795-1.613c0.521-0.196,1.062-0.402,1.606-0.61
		C97.429,503.326,92.128,485.437,101.828,472.398z"/>
	<path style="fill:#54A0FF;" d="M256,39.401c-105.686,0-191.668,85.982-191.668,191.668c0,62.478,30.608,121.212,81.875,157.112
		c6.925,4.849,9.984,13.577,7.602,21.688c-4.755,16.195-10.366,31.238-16.793,45.048c16.681-8.792,35.189-20.234,52.527-34.595
		c4.892-4.052,11.432-5.495,17.577-3.881c15.889,4.177,32.334,6.296,48.88,6.296c105.686,0,191.669-85.982,191.669-191.669
		S361.686,39.401,256,39.401z"/>
</g>
<path style="fill:#338DEF;" d="M137.016,454.918c8.82-4.648,18.151-10.046,27.549-16.216c3.606-9.154,6.892-18.77,9.846-28.833
	c2.382-8.111-0.677-16.839-7.602-21.688c-51.267-35.9-81.875-94.634-81.875-157.113c0-102.23,80.452-186.018,181.367-191.389
	C262.889,39.497,259.456,39.4,256,39.4c-105.686,0-191.668,85.982-191.668,191.668c0,62.478,30.608,121.212,81.875,157.113
	c6.925,4.849,9.984,13.577,7.602,21.688C149.053,426.064,143.443,441.108,137.016,454.918z"/>
<g>
	<path style="fill:#E4EAF8;" d="M256.15,165.82c13.869,0,25.585-11.541,25.585-25.201c0-13.48-11.717-24.869-25.585-24.869
		c-14.274,0-25.886,11.156-25.886,24.869C230.264,154.279,242.119,165.82,256.15,165.82z"/>
	<path style="fill:#E4EAF8;" d="M256.15,193.716c-14.355,0-24.381,6.952-24.381,16.907v126.405c0,8.325,9.797,17.238,24.381,17.238
		c13.148,0,24.682-8.055,24.682-17.238V210.623C280.832,200.826,270.452,193.716,256.15,193.716z"/>
</g>
<g>
	<path style="fill:#D8DCE5;" d="M250.695,140.619c0-10.173,6.394-18.934,15.521-22.782c-3.108-1.337-6.515-2.087-10.066-2.087
		c-14.274,0-25.886,11.156-25.886,24.869c0,13.66,11.854,25.201,25.886,25.201c3.585,0,7.023-0.776,10.156-2.156
		C257.216,159.707,250.695,150.748,250.695,140.619z"/>
	<path style="fill:#D8DCE5;" d="M252.2,337.027V210.623c0-7.359,5.482-13.073,14.139-15.555c-3.061-0.874-6.492-1.352-10.189-1.352
		c-14.355,0-24.381,6.952-24.381,16.907v126.405c0,8.325,9.797,17.238,24.381,17.238c3.566,0,7.011-0.597,10.142-1.644
		C257.582,349.67,252.2,343.192,252.2,337.027z"/>
</g>
<g>
</g>
<g>
</g>
<g>
</g>
<g>
</g>
<g>
</g>
<g>
</g>
<g>
</g>
<g>
</g>
<g>
</g>
<g>
</g>
<g>
</g>
<g>
</g>
<g>
</g>
<g>
</g>
<g>
</g>
</svg>
